<svg width="123" height="35" viewBox="0 0 123 35" fill="none" xmlns="http://www.w3.org/2000/svg">
<path d="M15.6649 0C4.29727 0 0.305012 6.42583 0.0216041 13.7636C-0.335031 22.9935 3.71105 29.0019 13.1039 29.5849C14.044 29.6431 14.9005 30.1142 15.4191 30.8697L17.6867 34.1742C18.041 35.1175 19.3927 35.2971 20.0189 34.4817L21.5697 32.4644C23.0434 30.5477 24.7497 28.8325 26.4549 27.1134C28.7214 24.8289 32 21.0514 32 14.8138C31.9992 6.26268 27.623 0 15.6649 0ZM15.6649 22.9931C11.5444 22.9931 8.18858 19.6762 8.18858 15.6033C8.18858 14.8646 8.79736 14.2629 9.54467 14.2629C10.292 14.2629 10.9008 14.865 10.9008 15.6033C10.9008 18.2031 13.0386 20.3162 15.6645 20.3162C18.2947 20.3162 20.4325 18.2031 20.4325 15.6033C20.4325 14.8646 21.0373 14.2629 21.7843 14.2629C22.5359 14.2629 23.1403 14.865 23.1403 15.6033C23.1411 19.6762 19.7897 22.9931 15.6649 22.9931ZM21.785 12.3078C20.6621 12.3078 19.7509 11.4072 19.7509 10.2972C19.7509 9.18294 20.6621 8.28229 21.785 8.28229C22.9123 8.28229 23.8235 9.18294 23.8235 10.2972C23.8235 11.4072 22.9123 12.3078 21.785 12.3078Z" fill="#0084D1"/>
<path d="M51.1668 8.72607H55.0115V20.486C55.0465 21.6913 54.7268 22.8804 54.092 23.9056C53.4572 24.9309 52.5353 25.7471 51.4408 26.253C50.1993 26.7982 48.8582 27.0798 47.5024 27.0798C46.1465 27.0798 44.8054 26.7982 43.564 26.253C42.4708 25.7462 41.5506 24.9295 40.9175 23.9042C40.2844 22.879 39.9663 21.6904 40.0028 20.486V8.72607H43.8475V20.1496C43.837 20.7924 43.9944 21.4268 44.3041 21.9902C44.6058 22.5244 45.0523 22.9625 45.592 23.2542C46.1932 23.5553 46.8564 23.712 47.5288 23.712C48.2012 23.712 48.8643 23.5553 49.4655 23.2542C50.0029 22.961 50.4474 22.5231 50.7487 21.9902C51.0584 21.4268 51.2158 20.7924 51.2053 20.1496L51.1668 8.72607Z" fill="black"/>
<path d="M69.6164 17.1267L66.1706 17.3381C66.112 17.0449 65.9815 16.7708 65.7909 16.5404C65.5836 16.2923 65.3222 16.095 65.0268 15.9637C64.6701 15.8115 64.285 15.7377 63.8974 15.7474C63.3812 15.7296 62.8703 15.8561 62.422 16.1127C62.2444 16.2037 62.0948 16.3412 61.989 16.5104C61.8833 16.6796 61.8253 16.8743 61.8213 17.0738C61.8206 17.2312 61.8552 17.3867 61.9226 17.5289C61.9899 17.6712 62.0883 17.7965 62.2105 17.8956C62.606 18.1768 63.062 18.3611 63.5417 18.4339L66.0023 18.9145C67.0859 19.0757 68.1057 19.5274 68.9531 20.2217C69.2734 20.5249 69.5249 20.8933 69.6907 21.3021C69.8565 21.7108 69.9328 22.1503 69.9143 22.5909C69.9267 23.4389 69.6505 24.2659 69.131 24.9362C68.5679 25.637 67.8303 26.1774 66.9923 26.5029C65.9966 26.8943 64.9335 27.0854 63.8637 27.0652C62.0664 27.0652 60.639 26.6903 59.5721 25.9406C59.0601 25.5899 58.6286 25.1343 58.3063 24.604C57.984 24.0737 57.7782 23.4808 57.7026 22.8649L61.4079 22.6726C61.4512 22.9252 61.5456 23.1663 61.6852 23.3811C61.8249 23.596 62.0069 23.7801 62.2201 23.9222C62.7166 24.1952 63.2726 24.3419 63.8391 24.3494C64.4056 24.357 64.9653 24.2251 65.4689 23.9654C65.6502 23.8687 65.8026 23.7257 65.9106 23.551C66.0187 23.3762 66.0785 23.176 66.084 22.9706C66.0833 22.8063 66.0438 22.6444 65.9686 22.4983C65.8934 22.3521 65.7848 22.2258 65.6515 22.1296C65.2599 21.8632 64.813 21.689 64.3443 21.6202L61.9895 21.1396C60.8891 20.9836 59.8602 20.5034 59.0339 19.7603C58.7132 19.4302 58.4627 19.0386 58.2975 18.6091C58.1323 18.1796 58.0558 17.7211 58.0727 17.2613C58.0516 16.4516 58.302 15.6582 58.784 15.0073C59.3037 14.3485 59.9981 13.8489 60.788 13.5656C61.7592 13.2051 62.7896 13.0307 63.8253 13.0513C65.5426 13.0513 66.8946 13.415 67.8814 14.1423C68.3655 14.4884 68.7706 14.9335 69.0697 15.448C69.3688 15.9625 69.5551 16.5347 69.6164 17.1267Z" fill="black"/>
<path d="M78.7427 27.0989C77.4877 27.1341 76.2452 26.8409 75.1383 26.2483C74.1462 25.6931 73.3403 24.8571 72.8219 23.8454C72.2839 22.6867 72.0051 21.4247 72.0051 20.1472C72.0051 18.8698 72.2839 17.6078 72.8219 16.4491C73.3325 15.4223 74.1284 14.5646 75.1143 13.9789C76.1718 13.3724 77.375 13.0667 78.5937 13.0947C79.4475 13.0875 80.2957 13.234 81.0976 13.5272C81.8618 13.8022 82.5571 14.24 83.1353 14.8103C83.7364 15.4224 84.1986 16.1567 84.4905 16.9634C84.8297 17.9359 84.9924 18.9613 84.9711 19.9911V21.0291H73.5091V18.6935H81.4292C81.44 18.1905 81.3191 17.6935 81.0784 17.2517C80.8525 16.8428 80.5204 16.5024 80.1172 16.2665C79.677 16.0208 79.1795 15.8964 78.6754 15.9061C78.1429 15.8975 77.618 16.0337 77.1568 16.3002C76.7275 16.5546 76.3727 16.9176 76.1283 17.3526C75.8773 17.8002 75.7465 18.3052 75.7487 18.8184V21.0339C75.7333 21.637 75.8618 22.235 76.1235 22.7785C76.359 23.2526 76.7304 23.6458 77.1904 23.9078C77.69 24.1834 78.254 24.3211 78.8244 24.3067C79.2145 24.3121 79.6028 24.252 79.973 24.1289C80.306 24.0199 80.611 23.8395 80.8669 23.6003C81.1182 23.3579 81.312 23.0623 81.434 22.7352L84.9183 22.9611C84.754 23.774 84.3795 24.5296 83.8321 25.1525C83.2546 25.7931 82.5331 26.2872 81.7272 26.5943C80.7737 26.9516 79.7606 27.1229 78.7427 27.0989Z" fill="black"/>
<path d="M94.9865 13.2532V16.0838H86.5955V13.2532H94.9865ZM88.5178 26.8345V12.2728C88.4848 11.4181 88.6858 10.5706 89.0993 9.8218C89.4721 9.19362 90.0245 8.69147 90.6852 8.38005C91.4008 8.04637 92.1835 7.88192 92.9728 7.89946C93.5043 7.89569 94.035 7.93911 94.5588 8.02922C95.0393 8.12053 95.3998 8.19743 95.6353 8.26952L94.9625 11.1002C94.7841 11.0452 94.6028 11.0002 94.4194 10.9656C94.2022 10.9255 93.9819 10.9046 93.761 10.9031C93.5516 10.8786 93.3393 10.9003 93.1392 10.9668C92.9391 11.0332 92.756 11.1427 92.6028 11.2876C92.3695 11.5962 92.2536 11.9778 92.276 12.3641V26.8538L88.5178 26.8345Z" fill="black"/>
<path d="M106.242 21.0531V13.2532H110.01V26.8345H106.391V24.3691H106.252C105.954 25.1527 105.42 25.8245 104.723 26.2915C103.954 26.7916 103.05 27.0448 102.133 27.0171C101.29 27.0361 100.459 26.8215 99.7301 26.3972C99.0346 25.9775 98.4741 25.367 98.1153 24.6382C97.7094 23.7849 97.5086 22.8485 97.529 21.9037V13.2532H101.297V21.2309C101.265 21.9222 101.495 22.6001 101.941 23.1292C102.157 23.3623 102.422 23.5454 102.717 23.6657C103.012 23.786 103.329 23.8408 103.647 23.8261C104.091 23.8299 104.529 23.7225 104.92 23.5137C105.323 23.3003 105.656 22.9769 105.882 22.5813C106.141 22.1151 106.266 21.586 106.242 21.0531Z" fill="black"/>
<path d="M117.031 8.72607V26.8345H113.263V8.72607H117.031Z" fill="black"/>
</svg>
